<?xml version="1.0" encoding="utf-8"?>
<svg version="1.1" id="Layer_1" x="0px" y="0px" viewBox="0 0 500 500" style="enable-background:new 0 0 2000 2000;" xmlns="http://www.w3.org/2000/svg" xmlns:bx="https://boxy-svg.com">
  <style type="text/css">
	.st0{fill:#FF2B32;}
</style>
  <g transform="matrix(0.662364, 0, 0, 0.662364, -412.364075, -412.363983)" style="" bx:origin="0.503 0.505">
    <g style="" transform="matrix(1.455139, 0, 0, 1.455139, -455.13913, -423.995056)">
      <g>
        <g>
          <path class="st0" d="M904.28,870.77c0,0,10.42,0,7.54,22.63l-0.54,8.08c0,0,7.9-5.57,17.96-7.36c0,0-20.47,17.06-22.81,22.27 h-4.67c0,0-12.57-12.21-63.57-12.57c0,0-9.52-8.26-9.52-22.99s7.54-27.12,22.09-38.61c12.59-9.95,54.41-26.4,46.51-55.49 c0,0,21.19,17.42,6.29,42.56s-37.35,25.14-37.17,44.53C866.56,892.14,899.61,884.96,904.28,870.77z"/>
        </g>
        <g>
          <path class="st0" d="M893.59,931.83c0,0,1.62-1.62,1.08-5.66c0,0,4.31,2.96,8.62,4.31c0,0-1.62,10.77-8.62,27.21 c-7,16.43-5.93,35.56-5.93,35.56s-105.86,25.32-143.03-60.34c0,0,16.97-16.7,63.57-27.74c0,0-48.48,19.39-54.95,27.74 c0,0,16.43,55.76,106.94,55.76c0,0-88.35-15.08-98.05-54.68C763.22,933.98,838.1,891.69,893.59,931.83z"/>
        </g>
        <g>
          <g>
            <path class="st0" d="M1035.27,1159.28c-11.84,12.24-35.27,11.16-35.27,11.16s-23.43,1.08-35.27-11.16 c11.84-12.24,35.27-11.16,35.27-11.16S1023.43,1147.03,1035.27,1159.28z"/>
          </g>
          <g>
            <g>
              <path class="st0" d="M946.53,1087.8c0,0,0.52-1.13,1.78-2.69c-2.89,2.68-4.03,5.08-4.03,5.08 c3.31,40.66,32.3,34.87,32.3,34.87c-0.11,0.28-0.28,0.59-0.48,0.9c1.27-1.08,2.3-2.2,2.74-3.28 C978.83,1122.67,949.84,1128.45,946.53,1087.8z"/>
            </g>
          </g>
          <g>
            <g>
              <path class="st0" d="M1074.16,1105.83c-2.69,14.91-8.8,22.98-8.8,22.98v-43.09c-30.17-40.4-65.36-12.75-65.36-12.75 s-35.2-27.65-65.36,12.75v43.09c0,0-6.11-8.07-8.8-22.98c0,0-8.27,25.14-1.26,43.09c6.99,17.98,31.6,6.84,38.06,3.42 c6.46-3.42,22.65-9.5,37.36-9.5c14.71,0,30.9,6.08,37.36,9.5c6.46,3.42,31.07,14.56,38.06-3.42 C1082.43,1130.97,1074.16,1105.83,1074.16,1105.83z M960.88,1137.43c0,0,11.64-5.03,13.6-9.5c0,0-31.6,5.38-33.94-38.79 c0,0,6.66-13.17,27.13-12.39c19.03,0.73,27.1,25.01,27.1,42.56C994.77,1119.3,984.71,1135.64,960.88,1137.43z M1025.52,1127.93c1.96,4.48,13.6,9.5,13.6,9.5c-23.83-1.79-33.89-18.13-33.89-18.13c0-17.55,8.07-41.83,27.1-42.56 c20.46-0.78,27.13,12.39,27.13,12.39C1057.12,1133.31,1025.52,1127.93,1025.52,1127.93z"/>
            </g>
            <g>
              <path class="st0" d="M1053.47,1087.8c0,0-0.52-1.13-1.78-2.69c2.89,2.68,4.03,5.08,4.03,5.08 c-3.31,40.66-32.3,34.87-32.3,34.87c0.11,0.28,0.28,0.59,0.48,0.9c-1.27-1.08-2.3-2.2-2.74-3.28 C1021.17,1122.67,1050.16,1128.45,1053.47,1087.8z"/>
            </g>
          </g>
        </g>
        <g>
          <path class="st0" d="M929.71,956.97c0,0,18.03,10.21,25.45,13.03c11.09,4.23,26.24,18.67,19.9,46.84c0,0-25.32,2.03-40.64-11.83 c-7.81-7.06-9.71-18.71-4.85-28.05c0.05-0.09,0.1-0.18,0.14-0.27C934.55,967.53,929.71,956.97,929.71,956.97z"/>
        </g>
        <g>
          <path class="st0" d="M1070.29,956.97c0,0-18.03,10.21-25.45,13.03c-11.09,4.23-26.24,18.67-19.9,46.84 c0,0,25.32,2.03,40.64-11.83c7.81-7.06,9.71-18.71,4.85-28.05c-0.05-0.09-0.1-0.18-0.14-0.27 C1065.45,967.53,1070.29,956.97,1070.29,956.97z"/>
        </g>
        <g>
          <path class="st0" d="M1095.72,870.77c0,0-10.42,0-7.54,22.63l0.54,8.08c0,0-7.9-5.57-17.96-7.36c0,0,20.47,17.06,22.81,22.27 h4.67c0,0,12.57-12.21,63.57-12.57c0,0,9.52-8.26,9.52-22.99s-7.54-27.12-22.09-38.61c-12.59-9.95-54.41-26.4-46.51-55.49 c0,0-21.19,17.42-6.29,42.56s37.35,25.14,37.17,44.53C1133.44,892.14,1100.39,884.96,1095.72,870.77z"/>
        </g>
        <g>
          <path class="st0" d="M1106.41,931.83c0,0-1.62-1.62-1.08-5.66c0,0-4.31,2.96-8.62,4.31c0,0,1.62,10.77,8.62,27.21 c7,16.43,5.93,35.56,5.93,35.56s105.86,25.32,143.03-60.34c0,0-16.97-16.7-63.57-27.74c0,0,48.48,19.39,54.95,27.74 c0,0-16.43,55.76-106.94,55.76c0,0,88.35-15.08,98.05-54.68C1236.78,933.98,1161.9,891.69,1106.41,931.83z"/>
        </g>
      </g>
    </g>
  </g>
</svg>