<?xml version="1.0" encoding="utf-8"?>
<!-- Generator: Adobe Illustrator 24.0.2, SVG Export Plug-In . SVG Version: 6.00 Build 0)  -->
<svg version="1.1" id="Layer_1" xmlns="http://www.w3.org/2000/svg" xmlns:xlink="http://www.w3.org/1999/xlink" x="0px" y="0px"
	 viewBox="0 0 2000 2000" style="enable-background:new 0 0 2000 2000;" xml:space="preserve">
<style type="text/css">
	.st0{fill:#FF2B32;}
</style>
<g>
	<g>
		<g>
			<g>
				<path class="st0" d="M904.28,870.77c0,0,10.42,0,7.54,22.63l-0.54,8.08c0,0,7.9-5.57,17.96-7.36c0,0-20.47,17.06-22.81,22.27
					h-4.67c0,0-12.57-12.21-63.57-12.57c0,0-9.52-8.26-9.52-22.99s7.54-27.12,22.09-38.61c12.59-9.95,54.41-26.4,46.51-55.49
					c0,0,21.19,17.42,6.29,42.56s-37.35,25.14-37.17,44.53C866.56,892.14,899.61,884.96,904.28,870.77z"/>
			</g>
			<g>
				<path class="st0" d="M893.59,931.83c0,0,1.62-1.62,1.08-5.66c0,0,4.31,2.96,8.62,4.31c0,0-1.62,10.77-8.62,27.21
					c-7,16.43-5.93,35.56-5.93,35.56s-105.86,25.32-143.03-60.34c0,0,16.97-16.7,63.57-27.74c0,0-48.48,19.39-54.95,27.74
					c0,0,16.43,55.76,106.94,55.76c0,0-88.35-15.08-98.05-54.68C763.22,933.98,838.1,891.69,893.59,931.83z"/>
			</g>
			<g>
				<g>
					<path class="st0" d="M1035.27,1159.28c-11.84,12.24-35.27,11.16-35.27,11.16s-23.43,1.08-35.27-11.16
						c11.84-12.24,35.27-11.16,35.27-11.16S1023.43,1147.03,1035.27,1159.28z"/>
				</g>
				<g>
					<g>
						<path class="st0" d="M946.53,1087.8c0,0,0.52-1.13,1.78-2.69c-2.89,2.68-4.03,5.08-4.03,5.08
							c3.31,40.66,32.3,34.87,32.3,34.87c-0.11,0.28-0.28,0.59-0.48,0.9c1.27-1.08,2.3-2.2,2.74-3.28
							C978.83,1122.67,949.84,1128.45,946.53,1087.8z"/>
					</g>
				</g>
				<g>
					<g>
						<path class="st0" d="M1074.16,1105.83c-2.69,14.91-8.8,22.98-8.8,22.98v-43.09c-30.17-40.4-65.36-12.75-65.36-12.75
							s-35.2-27.65-65.36,12.75v43.09c0,0-6.11-8.07-8.8-22.98c0,0-8.27,25.14-1.26,43.09c6.99,17.98,31.6,6.84,38.06,3.42
							c6.46-3.42,22.65-9.5,37.36-9.5c14.71,0,30.9,6.08,37.36,9.5c6.46,3.42,31.07,14.56,38.06-3.42
							C1082.43,1130.97,1074.16,1105.83,1074.16,1105.83z M960.88,1137.43c0,0,11.64-5.03,13.6-9.5c0,0-31.6,5.38-33.94-38.79
							c0,0,6.66-13.17,27.13-12.39c19.03,0.73,27.1,25.01,27.1,42.56C994.77,1119.3,984.71,1135.64,960.88,1137.43z
							 M1025.52,1127.93c1.96,4.48,13.6,9.5,13.6,9.5c-23.83-1.79-33.89-18.13-33.89-18.13c0-17.55,8.07-41.83,27.1-42.56
							c20.46-0.78,27.13,12.39,27.13,12.39C1057.12,1133.31,1025.52,1127.93,1025.52,1127.93z"/>
					</g>
					<g>
						<path class="st0" d="M1053.47,1087.8c0,0-0.52-1.13-1.78-2.69c2.89,2.68,4.03,5.08,4.03,5.08
							c-3.31,40.66-32.3,34.87-32.3,34.87c0.11,0.28,0.28,0.59,0.48,0.9c-1.27-1.08-2.3-2.2-2.74-3.28
							C1021.17,1122.67,1050.16,1128.45,1053.47,1087.8z"/>
					</g>
				</g>
			</g>
			<g>
				<path class="st0" d="M929.71,956.97c0,0,18.03,10.21,25.45,13.03c11.09,4.23,26.24,18.67,19.9,46.84c0,0-25.32,2.03-40.64-11.83
					c-7.81-7.06-9.71-18.71-4.85-28.05c0.05-0.09,0.1-0.18,0.14-0.27C934.55,967.53,929.71,956.97,929.71,956.97z"/>
			</g>
			<g>
				<path class="st0" d="M1070.29,956.97c0,0-18.03,10.21-25.45,13.03c-11.09,4.23-26.24,18.67-19.9,46.84
					c0,0,25.32,2.03,40.64-11.83c7.81-7.06,9.71-18.71,4.85-28.05c-0.05-0.09-0.1-0.18-0.14-0.27
					C1065.45,967.53,1070.29,956.97,1070.29,956.97z"/>
			</g>
			<g>
				<path class="st0" d="M1095.72,870.77c0,0-10.42,0-7.54,22.63l0.54,8.08c0,0-7.9-5.57-17.96-7.36c0,0,20.47,17.06,22.81,22.27
					h4.67c0,0,12.57-12.21,63.57-12.57c0,0,9.52-8.26,9.52-22.99s-7.54-27.12-22.09-38.61c-12.59-9.95-54.41-26.4-46.51-55.49
					c0,0-21.19,17.42-6.29,42.56s37.35,25.14,37.17,44.53C1133.44,892.14,1100.39,884.96,1095.72,870.77z"/>
			</g>
			<g>
				<path class="st0" d="M1106.41,931.83c0,0-1.62-1.62-1.08-5.66c0,0-4.31,2.96-8.62,4.31c0,0,1.62,10.77,8.62,27.21
					c7,16.43,5.93,35.56,5.93,35.56s105.86,25.32,143.03-60.34c0,0-16.97-16.7-63.57-27.74c0,0,48.48,19.39,54.95,27.74
					c0,0-16.43,55.76-106.94,55.76c0,0,88.35-15.08,98.05-54.68C1236.78,933.98,1161.9,891.69,1106.41,931.83z"/>
			</g>
		</g>
	</g>
	<g>
		<path class="st0" d="M1320.91,843.03c-17.54-41.47-42.65-78.72-74.64-110.7c-31.98-31.99-69.23-57.1-110.7-74.64
			c-42.94-18.17-88.55-27.38-135.57-27.38s-92.63,9.21-135.57,27.38c-41.47,17.54-78.72,42.65-110.7,74.64
			c-31.99,31.98-57.1,69.23-74.64,110.7c-18.17,42.94-27.38,88.55-27.38,135.57s9.21,92.63,27.38,135.57
			c10.93,25.84,24.8,50.04,41.44,72.35l6.46-8.38c-41.03-55.97-65.28-124.98-65.28-199.54c0-186.53,151.76-338.29,338.29-338.29
			s338.29,151.76,338.29,338.29c0,75.72-25.01,145.72-67.21,202.15l0.14,0.14c2.6,2.46,4.61,5.43,5.95,8.68
			c17.67-23.15,32.31-48.38,43.74-75.4c18.17-42.94,27.38-88.55,27.38-135.57S1339.08,885.97,1320.91,843.03z"/>
	</g>
	<g>
		<g>
			<path class="st0" d="M724.62,1256.62l-15.22-14.67l60.17-78.12l10.78,10.4l-47.7,61.36l58.99-50.47l10.68,10.3l-48.49,61.37
				l59.78-50.49l9.67,9.33l-75.89,62.96l-14.71-14.19l32.22-41.47L724.62,1256.62z"/>
		</g>
		<g>
			<path class="st0" d="M854.46,1232.01c13.1,7.55,15.79,19.43,7.96,33.02l-25.44,44.16c-7.83,13.59-19.46,17.23-32.56,9.68
				c-13.1-7.55-15.79-19.43-7.96-33.02l25.44-44.16C829.73,1228.1,841.36,1224.46,854.46,1232.01z M811.41,1306.74
				c4.25,2.45,8.24,1.68,11.74-4.39l26.42-45.85c3.49-6.07,2.15-9.91-2.09-12.35c-4.25-2.45-8.24-1.68-11.74,4.39l-26.42,45.85
				C805.82,1300.45,807.16,1304.29,811.41,1306.74z M858.42,1229.61l-8.98-5.17l16.01-8.71l13.1,7.55L858.42,1229.61z"/>
		</g>
		<g>
			<path class="st0" d="M870.67,1311.61l20.02-60.18l14.61,4.86l-14.81,44.5l21.82-11.92l-4.42,13.28l-21.82,11.92l-7.29,21.92
				l24.04,8l-4.42,13.28l-38.66-12.86l6.5-19.53l-8.81,4.74l4.42-13.28L870.67,1311.61z"/>
		</g>
		<g>
			<path class="st0" d="M990.92,1271.84l-5.48,97.85l-15.38-0.86l5.48-97.85L990.92,1271.84z"/>
		</g>
		<g>
			<path class="st0" d="M1061.97,1264.2c14.65-3.15,24.06,3.99,27.35,19.32l0.65,3.01l-14.23,3.06l-0.85-3.97
				c-1.47-6.84-4.77-8.86-9.56-7.83s-6.97,4.22-5.5,11.06c4.24,19.71,34.46,17.08,40.35,44.45c3.3,15.33-2.48,25.74-17.27,28.92
				c-14.78,3.18-24.33-3.93-27.63-19.26l-1.27-5.89l14.23-3.06l1.47,6.84c1.47,6.84,5.01,8.66,9.8,7.63s7.27-4.14,5.8-10.99
				c-4.24-19.71-34.46-17.08-40.35-44.45C1041.68,1277.73,1047.33,1267.35,1061.97,1264.2z"/>
		</g>
		<g>
			<path class="st0" d="M1138.76,1238.17l5.59,12.84l-14.76,6.43l33.54,77.01l-14.12,6.15l-33.54-77.01l-14.76,6.43l-5.59-12.84
				L1138.76,1238.17z"/>
		</g>
		<g>
			<path class="st0" d="M1167.81,1217.8c12.37-8.7,24.28-6.12,33.3,6.71l29.31,41.68c9.02,12.83,7.42,24.91-4.95,33.6
				c-12.37,8.7-24.28,6.12-33.3-6.71l-29.31-41.68C1153.84,1238.58,1155.44,1226.5,1167.81,1217.8z M1167.31,1213.2l-8.47,5.96
				l-1.15-18.19l12.37-8.7L1167.31,1213.2z M1217.42,1288.35c4.01-2.82,5-6.77,0.97-12.49l-30.44-43.29
				c-4.03-5.73-8.08-6.13-12.08-3.31c-4.01,2.82-5,6.77-0.97,12.49l30.44,43.29C1209.36,1290.76,1213.41,1291.17,1217.42,1288.35z"
				/>
		</g>
		<g>
			<path class="st0" d="M1246.79,1236.74l-46.01-43.64l10.6-11.17l34.02,32.27l-1.55-24.81l10.16,9.63l1.55,24.81l16.76,15.9
				l17.44-18.38l10.16,9.63l-28.04,29.55l-14.93-14.16l0.56,9.99l-10.16-9.63L1246.79,1236.74z"/>
		</g>
	</g>
</g>
</svg>
