<svg id="visual" viewBox="0 0 1920 1500" width="1920" height="1500" xmlns="http://www.w3.org/2000/svg" xmlns:xlink="http://www.w3.org/1999/xlink" version="1.1"><rect width="1920" height="1500" fill="#1a1a1a"></rect><g><g transform="translate(206 1167)"><path d="M194 -61.2C220.1 17.5 188.5 116.8 123 162.8C57.5 208.9 -41.9 201.7 -113.1 151.1C-184.2 100.4 -227.2 6.3 -203.6 -68.8C-180.1 -143.9 -90 -200.1 -3.1 -199.1C83.9 -198.1 167.8 -139.9 194 -61.2Z" fill="#1b3289"></path></g><g transform="translate(1734 166)"><path d="M215.1 -69.1C240.3 7.7 195.8 108 126 154.2C56.2 200.3 -38.9 192.4 -111.8 142.2C-184.8 91.9 -235.5 -0.5 -213.2 -73.4C-190.9 -146.3 -95.4 -199.5 -0.2 -199.4C94.9 -199.3 189.9 -145.9 215.1 -69.1Z" fill="#1b3289"></path></g><g transform="translate(808 1485)"><path d="M170.9 -55.2C195.1 18.9 170.1 109.4 110 153.5C50 197.6 -45.2 195.4 -106.3 150.1C-167.5 104.7 -194.7 16.3 -171.3 -56.7C-147.9 -129.7 -74 -187.3 -0.3 -187.2C73.3 -187.1 146.7 -129.3 170.9 -55.2Z" fill="#1b3289"></path></g></g></svg>